<?xml version="1.0" encoding="iso-8859-1"?>
<!-- Generator: Adobe Illustrator 19.0.0, SVG Export Plug-In . SVG Version: 6.00 Build 0)  -->
<svg version="1.1" id="Capa_1" xmlns="http://www.w3.org/2000/svg" xmlns:xlink="http://www.w3.org/1999/xlink" x="0px" y="0px"
	 viewBox="0 0 512 512" style="enable-background:new 0 0 512 512;" xml:space="preserve">
<g>
	<g>
		<path d="M166.173,62.724c-19.598,16.981-34.169,39.39-40.867,64.547c-23.185,7.344-43.711,21.129-59.821,39.185
			c23.257,1.168,44.157,11.213,59.516,26.719c14.182-9.346,28.821-11.591,41.907-12.16c7.749-0.337,13.667-6.313,13.784-13.901
			c0.223-14.515,2.139-29.531,10.977-43.59C176.341,107.691,166.631,86.363,166.173,62.724z"/>
	</g>
</g>
<g>
	<g>
		<path d="M386.693,127.27c-6.698-25.157-21.27-47.565-40.867-64.547c-0.458,23.639-10.168,44.965-25.496,60.798
			c8.84,14.057,10.754,29.073,10.977,43.577c0.117,7.603,6.035,13.579,13.784,13.916c13.087,0.569,27.726,2.814,41.907,12.16
			c15.359-15.505,36.259-25.551,59.515-26.721C430.404,148.398,409.878,134.614,386.693,127.27z"/>
	</g>
</g>
<g>
	<g>
		<path d="M181.014,345.091c-0.322-7.456-6.65-13.784-14.106-14.106c-13.085-0.569-27.722-2.813-41.906-12.158
			c-15.366,15.511-36.277,25.558-59.548,26.722c16.465,18.463,37.54,32.411,61.346,39.65c7.239,23.806,21.188,44.881,39.65,61.346
			c1.165-23.271,11.212-44.182,26.722-59.548C183.826,372.814,181.583,358.176,181.014,345.091z"/>
	</g>
</g>
<g>
	<g>
		<path d="M256,196c-33.091,0-60,26.909-60,60s26.909,60,60,60s60-26.909,60-60S289.091,196,256,196z"/>
	</g>
</g>
<g>
	<g>
		<path d="M386.998,318.827c-14.184,9.346-28.821,11.589-41.906,12.158c-7.456,0.322-13.784,6.65-14.106,14.106
			c-0.569,13.085-2.813,27.722-12.158,41.906c15.511,15.366,25.558,36.277,26.722,59.548c18.463-16.465,32.411-37.54,39.65-61.346
			c23.806-7.238,44.881-21.187,61.346-39.65C423.275,344.384,402.364,334.337,386.998,318.827z"/>
	</g>
</g>
<g>
	<g>
		<path d="M256,0c-33.137,0-60,27.862-60,61c0,33.137,26.863,60,60,60c33.137,0,60-26.863,60-60C316,27.862,289.137,0,256,0z"/>
	</g>
</g>
<g>
	<g>
		<path d="M256,391c-33.137,0-60,26.862-60,60c0,33.137,26.863,61,60,61c33.137,0,60-27.863,60-61C316,417.862,289.137,391,256,391z
			"/>
	</g>
</g>
<g>
	<g>
		<path d="M451,196c-33.137,0-60,26.862-60,60c0,33.137,26.863,60,60,60c33.137,0,61-26.863,61-60C512,222.862,484.137,196,451,196z
			"/>
	</g>
</g>
<g>
	<g>
		<path d="M61,196c-33.137,0-61,26.862-61,60c0,33.137,27.863,60,61,60s60-26.863,60-60C121,222.862,94.137,196,61,196z"/>
	</g>
</g>
<g>
</g>
<g>
</g>
<g>
</g>
<g>
</g>
<g>
</g>
<g>
</g>
<g>
</g>
<g>
</g>
<g>
</g>
<g>
</g>
<g>
</g>
<g>
</g>
<g>
</g>
<g>
</g>
<g>
</g>
</svg>
